<svg width="24" height="24" viewBox="0 0 24 24" fill="none" xmlns="http://www.w3.org/2000/svg">
<path d="M6 6C6 5.73478 6.10536 5.48043 6.2929 5.29289C6.48043 5.10536 6.73479 5 7 5C7.26522 5 7.51957 5.10536 7.70711 5.29289C7.89465 5.48043 8 5.73478 8 6V12.026C8.632 12.086 9.3 12.218 10 12.441V11H16V14.485C16.6815 14.4756 17.3569 14.3557 18 14.13V6C18 5.20435 17.6839 4.44129 17.1213 3.87868C16.5587 3.31607 15.7957 3 15 3C14.2044 3 13.4413 3.31607 12.8787 3.87868C12.3161 4.44129 12 5.20435 12 6C12 6.26522 12.1054 6.51957 12.2929 6.70711C12.4804 6.89464 12.7348 7 13 7C13.2652 7 13.5196 6.89464 13.7071 6.70711C13.8946 6.51957 14 6.26522 14 6C14 5.73478 14.1054 5.48043 14.2929 5.29289C14.4804 5.10536 14.7348 5 15 5C15.2652 5 15.5196 5.10536 15.7071 5.29289C15.8946 5.48043 16 5.73478 16 6V9H10V6C10 5.20435 9.68393 4.44129 9.12132 3.87868C8.55871 3.31607 7.79565 3 7 3C6.20435 3 5.44129 3.31607 4.87868 3.87868C4.31607 4.44129 4 5.20435 4 6C4 6.26522 4.10536 6.51957 4.2929 6.70711C4.48043 6.89464 4.73479 7 5 7C5.26522 7 5.51957 6.89464 5.70711 6.70711C5.89465 6.51957 6 6.26522 6 6ZM6.592 15.025C5.568 15.151 4.892 15.572 4.606 15.791C4.39489 15.9517 4.12858 16.022 3.86565 15.9864C3.60273 15.9507 3.36472 15.8121 3.204 15.601C3.04328 15.3899 2.97301 15.1236 3.00864 14.8607C3.04427 14.5977 3.18289 14.3597 3.394 14.199C3.886 13.825 4.887 13.22 6.347 13.039C7.822 12.858 9.683 13.119 11.86 14.356C15.648 16.51 18.696 15.009 19.49 14.539C19.7178 14.4092 19.9875 14.374 20.241 14.4411C20.4945 14.5082 20.7115 14.6722 20.8452 14.8978C20.979 15.1233 21.0188 15.3923 20.9561 15.647C20.8934 15.9016 20.7332 16.1214 20.51 16.259C19.433 16.897 15.561 18.761 10.871 16.095C9.035 15.051 7.603 14.9 6.592 15.025ZM4.606 19.79C4.893 19.571 5.568 19.15 6.592 19.024C7.602 18.899 9.035 19.05 10.872 20.094C15.562 22.76 19.432 20.896 20.51 20.259C20.623 20.192 20.7217 20.1034 20.8005 19.9983C20.8793 19.8932 20.9365 19.7736 20.9691 19.6463C21.0016 19.5191 21.0088 19.3867 20.9902 19.2566C20.9715 19.1266 20.9275 19.0015 20.8605 18.8885C20.7935 18.7755 20.705 18.6768 20.5998 18.598C20.4947 18.5193 20.3751 18.462 20.2478 18.4294C20.1206 18.3969 19.9882 18.3897 19.8581 18.4083C19.7281 18.427 19.603 18.471 19.49 18.538C18.696 19.008 15.648 20.509 11.86 18.355C9.683 17.118 7.822 16.857 6.347 17.039C4.887 17.219 3.887 17.824 3.394 18.199C3.19119 18.3625 3.06019 18.5987 3.02887 18.8573C2.99756 19.1159 3.0684 19.3766 3.22633 19.5837C3.38426 19.7909 3.6168 19.9283 3.87447 19.9666C4.13214 20.005 4.3946 19.9412 4.606 19.789" fill="white"/>
</svg>
