<svg width="356" height="266" viewBox="0 0 356 266" fill="none" xmlns="http://www.w3.org/2000/svg">
<path d="M119.5 17.65C134.35 12.96 153.02 7.10002 161 4.62002C168.98 2.13002 176.4 0.0700179 177.5 0.0300179C178.6 1.78721e-05 182.2 0.910018 185.5 2.05002C188.8 3.20002 193.07 4.48002 195 4.91002C196.93 5.33002 202.32 6.86002 207 8.30002C211.68 9.74002 225.4 13.9 237.5 17.54C249.6 21.18 264.68 25.68 271 27.55C277.32 29.42 288.35 32.79 295.5 35.05C302.65 37.31 311.88 40.07 316 41.19C320.13 42.32 324.06 43.86 324.75 44.62C325.78 45.76 325.34 46.29 322.25 47.65C320.19 48.55 316.7 49.52 314.5 49.8C312.3 50.08 309.6 50.88 308.5 51.59C307.4 52.29 299.3 54.95 290.5 57.5C281.7 60.05 274.05 62.25 273.5 62.4C272.95 62.54 268.45 63.88 263.5 65.38C258.55 66.88 253.49 68.53 252.25 69.05C250.05 69.98 250 70.37 250 85.5C250 95.88 249.59 101.83 248.75 103.53C248.06 104.92 246.94 106.04 246.25 106.03C245.56 106.01 243.76 105.18 242.25 104.17C240.74 103.17 235 100.7 229.5 98.69C224 96.69 215.9 94.19 211.5 93.15C207.1 92.11 200.8 90.75 197.5 90.13C194.2 89.52 185.54 89.01 178.25 89.01C169.39 89 161.11 89.68 153.25 91.04C146.79 92.16 135.88 94.94 129 97.21C122.13 99.49 115.38 102.15 114 103.13C112.63 104.1 110.38 105.19 109 105.53C106.98 106.03 106.36 105.7 105.76 103.83C105.36 102.55 105.02 95.99 105.01 89.25C105 78.48 105.23 76.79 106.9 75.25C107.95 74.29 113.01 71.39 118.15 68.82C123.29 66.25 130.87 63.03 135 61.68C139.12 60.33 143.85 58.96 145.5 58.63C147.15 58.31 149.85 57.79 151.5 57.49C153.15 57.19 156.71 56.67 159.41 56.33C162.11 56 164.81 55.04 165.41 54.2C166.37 52.86 165.18 52.75 155 53.31C148.68 53.65 139.45 54.82 134.5 55.91C129.55 56.99 122.8 58.76 119.5 59.83C116.2 60.91 110.46 63.19 100 68L80.75 62.08C70.16 58.82 60.6 55.86 59.5 55.49C58.4 55.12 56.6 54.42 55.5 53.94C54.4 53.46 49.22 51.88 44 50.42C38.78 48.97 34.05 47.38 33.5 46.89C32.8333 46.2967 32.8333 45.6734 33.5 45.02C34.05 44.48 43.28 41.28 54 37.91C64.72 34.55 77.77 30.52 83 28.98C88.23 27.43 104.65 22.33 119.5 17.65Z" fill="#1D2B58"/>
<path d="M80.1 150.47C91.32 134.83 102.22 119.54 104.33 116.51C106.43 113.48 108.45 111.02 108.83 111.04C109.2 111.05 110.63 111.71 112 112.5C113.38 113.29 115.4 113.96 116.5 114C117.6 114.03 120.07 115.05 122 116.25C123.93 117.45 126.4 118.51 127.5 118.6C128.6 118.69 129.95 119.48 130.5 120.35C131.05 121.21 132.06 121.94 132.75 121.96C133.44 121.98 134 122.45 134 123C134 123.64 132.47 123.58 129.75 122.84C127.41 122.19 125.27 121.33 125 120.91C124.73 120.49 123.38 119.93 122 119.67C120.63 119.41 118.26 118.93 116.75 118.6C114.31 118.07 113.52 118.63 109.75 123.63C107.41 126.73 104.6 130.49 103.5 131.99C102.4 133.49 100.61 136.02 99.51 137.61C98.42 139.2 96.96 141.06 96.26 141.75C95.57 142.44 95 143.45 95 144C95 144.55 94.43 145.56 93.74 146.25C93.05 146.94 90.24 150.84 87.49 154.93C84.75 159.02 81.26 163.63 79.75 165.18C78.24 166.73 77 168.34 76.99 168.75C76.99 169.16 74.98 172.43 68.06 182.5L79.78 188.55C86.23 191.87 94.2 196.11 97.5 197.96C100.8 199.8 110.48 205.98 119 211.69C127.52 217.39 137.2 224.32 140.5 227.07C143.8 229.83 147.06 233.19 147.75 234.54C148.44 235.89 149.45 237 150 237C150.55 237 153.7 240.26 156.99 244.25C160.29 248.24 162.77 251.73 162.5 252C162.24 252.27 158.31 248.73 153.76 244.13C149.22 239.52 144.38 235.19 143 234.51C141.63 233.82 139.15 231.88 137.5 230.19C135.85 228.5 134.05 227.42 133.5 227.8C132.91 228.2 132.8 227.98 133.25 227.24C133.743 226.413 133.327 226 132 226C130.9 226 129.77 225.55 129.5 225C129.23 224.45 126.64 222.47 123.75 220.61C120.86 218.74 113.32 214.31 107 210.75C100.68 207.19 92.35 202.8 88.5 201C84.65 199.2 76.55 195.55 70.5 192.9C64.45 190.25 58.71 187.39 57.75 186.54C56.79 185.69 55.66 185.34 55.25 185.75C54.84 186.15 55.73 185.14 57.23 183.5C58.73 181.85 59.91 180.14 59.84 179.71C59.77 179.27 68.89 166.12 80.1 150.47Z" fill="#1D2B58"/>
<path d="M233.5 116.31C235.15 115.43 238.94 113.92 241.92 112.96C245.77 111.72 247.8 111.51 248.91 112.23C249.76 112.79 250.41 113.61 250.34 114.06C250.28 114.51 252.81 118.39 255.96 122.69C259.12 126.98 263.68 133.34 266.1 136.81C268.52 140.29 271.38 144.56 272.46 146.31C273.54 148.07 274.94 149.95 275.57 150.5C276.2 151.05 279.8 156 283.56 161.5C287.33 167 290.65 171.73 290.95 172C291.25 172.27 292.6 174.07 293.93 176C295.27 177.93 297.3 180.74 300.5 185.03L298 186.77C296.62 187.72 291.23 190.4 286 192.71C280.77 195.03 275.71 196.95 274.75 196.96C273.79 196.98 272.89 197.37 272.75 197.83C272.61 198.29 269.8 199.92 266.5 201.46C263.2 203 255.55 207.07 249.5 210.49C243.45 213.92 234.9 219.05 230.5 221.89C226.1 224.74 222.16 227.05 221.75 227.03C221.34 227.01 220.1 228.12 219 229.5C217.9 230.87 216.32 232 215.5 232C214.68 232 213.77 232.68 213.5 233.5C213.23 234.32 212.55 235 212 235C211.45 235 206.88 239.16 201.85 244.25C196.82 249.34 193.07 252.82 193.52 252C193.97 251.18 196.47 247.8 199.07 244.5C201.67 241.2 207.03 235.57 210.98 232C214.93 228.43 219.81 224 221.83 222.16C223.85 220.32 227.52 217.53 230 215.95C232.48 214.37 236.3 211.82 238.49 210.29C240.69 208.75 244.96 206.02 247.99 204.22C251.02 202.41 253.61 200.95 253.75 200.97C253.89 200.99 257.04 199.13 260.75 196.84C264.46 194.55 271.73 190.61 276.9 188.09C282.06 185.56 286.45 182.94 286.65 182.25C286.84 181.56 285.51 178.86 283.68 176.25C281.86 173.64 278.02 168.12 275.16 164C272.29 159.87 267.9 153.57 265.39 150C262.89 146.43 259.99 142.6 258.94 141.5C257.9 140.4 257.03 139.16 257.02 138.75C257.01 138.34 256.13 136.99 255.07 135.75C254.01 134.51 250.72 130.12 247.77 126C243.94 120.66 241.83 118.56 240.44 118.7C239.38 118.82 237.15 119.15 235.5 119.44C233.85 119.73 232.07 120.43 231.55 120.99C231.03 121.54 229.79 122 228.8 122C227.81 122 225.42 122.79 223.48 123.75C221.55 124.71 219.64 125.17 219.23 124.76C218.83 124.36 219.74 123.57 221.25 123.01C222.76 122.46 224 121.66 224 121.25C224 120.84 225.46 119.92 227.25 119.21C229.04 118.5 231.85 117.19 233.5 116.31Z" fill="#1D2B58"/>
<path d="M8.17 220.5C9.94 217.2 12.05 213.99 12.87 213.37C13.69 212.74 15.07 212.37 15.93 212.54C16.79 212.71 17.61 212.88 17.75 212.92L17.7703 212.927C17.9295 212.984 18.358 213.137 18.75 213.29C19.16 213.45 20.66 213.91 22.07 214.31C23.61 214.75 24.71 215.83 24.82 217.02C24.92 218.11 24.1 221.02 23 223.5C21.9 225.98 21.23 228.45 21.5 229C21.78 229.55 24.14 230.28 26.75 230.63C29.36 230.97 32.18 231.38 33 231.52C33.83 231.67 37.2 232.1 40.5 232.48C43.8 232.85 50.55 233.82 55.5 234.64C60.45 235.45 69 237.02 74.5 238.12C80 239.23 88.33 241.23 93 242.57C97.68 243.91 103.98 245.72 107 246.59C110.02 247.47 116.33 249.78 121 251.73C125.68 253.69 130.63 256.29 132 257.53C133.38 258.76 135.51 260.05 136.75 260.39C137.99 260.72 139 261.45 139 262C139 262.55 139.34 262.81 139.75 262.59C140.16 262.36 141.4 262.82 142.5 263.61C144.27 264.87 144.3 265.03 142.75 265.02C141.79 265.01 139.09 264.1 136.75 263C134.41 261.9 131.38 260.77 130 260.5C128.63 260.22 123.9 258.89 119.5 257.55C115.1 256.2 105.88 253.75 99 252.09C92.13 250.43 78.85 247.74 69.5 246.11C60.15 244.48 45.98 242.26 38 241.16C30.03 240.06 18.55 238.61 12.5 237.92C6.45 237.24 1.19 236.19 0.799997 235.59C0.419997 234.99 1.21 233.04 2.55 231.25C3.9 229.46 4.99 227.66 4.98 227.25C4.97 226.84 6.41 223.8 8.17 220.5Z" fill="#1D2B58"/>
<path d="M329.78 216.39C329.65 215.79 331.11 214.82 333.02 214.25C334.93 213.67 337.51 213.16 338.75 213.1C339.99 213.05 341.9 213.45 343 214C344.1 214.55 346.99 218.71 349.42 223.25C351.86 227.79 354.33 232.74 354.92 234.25C355.52 235.76 355.66 236.91 355.25 236.81C354.84 236.7 349.78 237.17 344 237.85C338.23 238.52 329.9 239.55 325.5 240.12C321.1 240.7 313.23 241.78 308 242.54C302.78 243.29 295.58 244.4 292 245C288.43 245.6 284.15 246.3 282.5 246.55C280.85 246.8 277.7 247.43 275.5 247.97C273.3 248.5 266.33 250.08 260 251.48C253.68 252.88 244.68 255.08 240 256.36C235.33 257.65 230.83 258.96 230 259.27C229.18 259.58 227.15 260.14 225.5 260.51C223.85 260.88 220.7 262.04 218.5 263.1C216.3 264.16 214.39 265.02 214.25 265.01C214.11 265.01 214.23 264.55 214.5 264C214.78 263.45 216.8 262.1 219 261C221.2 259.9 223.79 258.2 224.75 257.22C225.71 256.24 230.33 253.81 235 251.82C239.68 249.84 245.75 247.54 248.5 246.72C251.25 245.89 256.65 244.31 260.5 243.19C264.35 242.07 271.55 240.27 276.5 239.2C281.45 238.12 288.88 236.71 293 236.06C297.13 235.42 302.75 234.47 305.5 233.96C308.25 233.46 315.56 232.36 321.75 231.52C327.94 230.68 333.45 230 334 230C334.55 230 334.99 229.44 334.97 228.75C334.95 228.06 333.83 225.25 332.48 222.5C331.13 219.75 329.91 217 329.78 216.39Z" fill="#1D2B58"/>
<path d="M47.29 138.5C50.06 133.55 52.99 128.44 53.8 127.15C55.07 125.14 55.78 124.91 58.89 125.51C60.87 125.89 66.1 127.51 70.5 129.12C74.9 130.72 79.17 132.46 80 132.98C81.0066 133.607 81.1733 134.27 80.5 134.97C79.8 135.7 78.14 135.56 75 134.49C72.52 133.65 68.48 132.71 66 132.41C61.99 131.91 61.38 132.11 60.44 134.18C59.86 135.45 53.59 146.85 46.52 159.5C39.44 172.15 31.91 185.65 29.79 189.5C27.67 193.35 26.17 197.06 26.47 197.75C26.76 198.44 29.59 199.83 32.75 200.83C35.91 201.84 51.32 207.3 67 212.96C82.67 218.62 100.45 225.45 106.5 228.14C112.55 230.83 121.01 235.16 125.31 237.76C129.6 240.37 136.69 245.31 141.06 248.75C145.43 252.19 148.78 255.34 148.51 255.75C148.24 256.16 145.43 254.85 142.26 252.83C139.09 250.81 131.1 246.47 124.5 243.19C117.9 239.9 103.95 233.83 93.5 229.7C83.05 225.57 62.8 218.35 48.5 213.66C34.2 208.97 20.47 204.49 18 203.7C15.42 202.89 13.53 201.69 13.57 200.89C13.6 200.13 18.97 189.83 25.48 178C32 166.18 38.44 154.48 39.79 152C41.14 149.53 44.51 143.45 47.29 138.5Z" fill="#010101"/>
<path d="M275.21 133.36C275.92 132.73 281.23 130.59 287 128.6C292.77 126.61 298.35 125.1 299.38 125.24C300.53 125.4 302.8 128.22 305.23 132.5C307.41 136.35 310.58 141.98 312.27 145C313.95 148.03 316.32 152.3 317.53 154.5C318.74 156.7 324.34 166.83 329.97 177C335.6 187.18 341.06 196.96 344 202L332.25 205.61C325.79 207.59 311.73 212.14 301 215.7C290.27 219.27 272.95 225.57 262.5 229.71C252.05 233.85 237.65 240.17 230.5 243.75C223.35 247.34 215.81 251.34 213.75 252.64C211.69 253.94 209.66 254.74 209.25 254.42C208.84 254.11 210.07 252.52 212 250.9C213.93 249.27 219.77 245.06 225 241.53C230.23 238 239.23 232.91 245 230.21C250.77 227.52 260.45 223.47 266.5 221.22C272.55 218.97 283.35 215.03 290.5 212.46C297.65 209.89 309.12 205.78 316 203.33C322.87 200.88 329.01 198.56 329.64 198.18C330.39 197.73 328.11 192.77 322.89 183.5C318.55 175.8 310.39 161.07 304.75 150.77C295.73 134.29 294.2 132.04 292 132C290.62 131.98 286.35 132.89 282.5 134.04C278.65 135.18 275.14 135.75 274.71 135.31C274.27 134.86 274.5 133.99 275.21 133.36Z" fill="#010101"/>
<path d="M99.45 158.5C107.41 146.95 115.14 135.81 116.63 133.75C118.12 131.69 119.71 130 120.17 130C120.63 130 126.74 132.9 133.75 136.45C140.76 140 150.66 145.62 155.75 148.95C164.93 154.95 165 155.03 165.14 159.25C165.22 161.59 165.4 165.08 165.55 167C165.7 168.93 166.77 180.4 167.94 192.5C169.1 204.6 170.6 220.43 171.28 227.68C171.95 234.93 172.27 241.12 172 241.44C171.73 241.76 166.77 237.35 161 231.65C155.23 225.95 144.8 217.06 137.84 211.89C130.88 206.73 119.4 199.06 112.34 194.86C105.28 190.66 96.35 185.54 92.5 183.48C88.65 181.43 85.38 179.69 85.24 179.62C85.09 179.55 91.49 170.05 99.45 158.5Z" fill="#010101"/>
<path d="M200.2 149C204.76 145.98 214.35 140.48 221.5 136.78C228.65 133.09 234.84 130.05 235.25 130.03C235.66 130.01 236.57 130.56 237.28 131.25C237.98 131.94 243.23 139.25 248.96 147.5C254.68 155.75 261.45 165.43 264.01 169C266.57 172.58 269.16 176.4 269.77 177.5C270.76 179.27 270.41 179.74 266.69 181.61C264.39 182.77 256.76 187.16 249.75 191.36C242.74 195.56 236.77 199 236.5 199C236.23 199 232.06 201.79 227.25 205.2C222.44 208.62 217.33 212.33 215.9 213.45C214.48 214.58 211.33 217.06 208.9 218.97C206.48 220.88 200 226.85 194.5 232.25C189 237.64 184.27 241.79 184 241.46C183.73 241.13 184.54 229.75 185.81 216.18C187.08 202.61 188.8 184.08 189.63 175C190.46 165.93 191.31 157.6 191.52 156.5C191.74 155.32 195.29 152.25 200.2 149Z" fill="#010101"/>
<path d="M173.97 129.25C173.44 118.11 173.21 108.38 173.47 107.61C173.79 106.67 175.43 106.27 178.64 106.36C182.87 106.49 183.36 106.75 183.61 109C183.77 110.37 183.46 118.7 182.94 127.5C182.42 136.3 181.78 146.65 181.53 150.5C181.28 154.35 181.06 160.09 181.04 163.25C181.02 166.74 180.61 168.8 180 168.5C179.38 168.19 178.94 170.97 178.84 175.75C178.75 180.01 178.53 181.92 178.34 180C178.15 178.07 177.56 174.02 177.04 171C176.51 167.98 175.82 161.9 175.51 157.5C175.2 153.1 174.51 140.39 173.97 129.25Z" fill="#1D2B58"/>
</svg>
